<?xml version="1.0" encoding="UTF-8" standalone="no"?>
<!-- Created with Inkscape (http://www.inkscape.org/) -->

<svg
   width="512"
   height="512"
   viewBox="0 0 135.46666 135.46667"
   version="1.1"
   id="svg1"
   inkscape:version="1.3.2 (091e20ef0f, 2023-11-25, custom)"
   sodipodi:docname="loading.svg"
   xmlns:inkscape="http://www.inkscape.org/namespaces/inkscape"
   xmlns:sodipodi="http://sodipodi.sourceforge.net/DTD/sodipodi-0.dtd"
   xmlns="http://www.w3.org/2000/svg"
   xmlns:svg="http://www.w3.org/2000/svg">
  <sodipodi:namedview
     id="namedview1"
     pagecolor="#ffffff"
     bordercolor="#000000"
     borderopacity="0.25"
     inkscape:showpageshadow="2"
     inkscape:pageopacity="0.0"
     inkscape:pagecheckerboard="0"
     inkscape:deskcolor="#d1d1d1"
     inkscape:document-units="mm"
     inkscape:zoom="0.66069171"
     inkscape:cx="436.66357"
     inkscape:cy="190.70922"
     inkscape:window-width="1920"
     inkscape:window-height="1020"
     inkscape:window-x="0"
     inkscape:window-y="0"
     inkscape:window-maximized="1"
     inkscape:current-layer="svg1"
     showguides="true" />
  <defs
     id="defs1" />
  <path
     d="M 2.1388875,56.520581 H 21.788334 A 47.309662,48.055695 0 0 1 56.520581,21.125842 V 1.1218953 A 66.681824,67.733337 0 0 0 2.1388875,56.520581 Z"
     style="fill:#001b2e;stroke-width:5.10001;stroke-linejoin:round;paint-order:stroke fill markers"
     id="path23" />
  <path
     d="M 56.520581,134.34477 V 114.34082 A 47.309662,48.055695 0 0 1 21.788334,78.946086 H 2.1388875 A 66.681824,67.733337 0 0 0 56.520581,134.34477 Z"
     style="fill:#001b2e;stroke-width:5.10001;stroke-linejoin:round;paint-order:stroke fill markers"
     id="path22" />
  <path
     d="m 78.946086,114.34082 v 20.00395 A 66.681824,67.733337 0 0 0 133.32778,78.946086 H 113.67833 A 47.309662,48.055695 0 0 1 78.946086,114.34082 Z"
     style="fill:#001b2e;stroke-width:5.10001;stroke-linejoin:round;paint-order:stroke fill markers"
     id="path21" />
  <path
     d="M 78.946086,1.1218953 V 21.125842 a 47.309662,48.055695 0 0 1 34.732244,35.394739 h 19.64945 A 66.681824,67.733337 0 0 0 78.946086,1.1218953 Z"
     style="fill:#001b2e;stroke-width:5.10001;stroke-linejoin:round;paint-order:stroke fill markers"
     id="path20" />
</svg>
